<svg width="36" height="35" viewBox="0 0 36 35" fill="none" xmlns="http://www.w3.org/2000/svg">
<path d="M4.5 14.3601C3.72 14.3601 3.075 14.1058 2.565 13.5972C2.055 13.0886 1.8 12.4454 1.8 11.6676C1.8 10.8898 2.055 10.2465 2.565 9.73795C3.075 9.22936 3.72 8.97507 4.5 8.97507C5.28 8.97507 5.925 9.22936 6.435 9.73795C6.945 10.2465 7.2 10.8898 7.2 11.6676C7.2 12.4454 6.945 13.0886 6.435 13.5972C5.925 14.1058 5.28 14.3601 4.5 14.3601ZM1.8 34.1053V25.1302H0V17.9501C0 17.4416 0.1725 17.0152 0.5175 16.6712C0.8625 16.3271 1.29 16.1551 1.8 16.1551H7.2C7.71 16.1551 8.1375 16.3271 8.4825 16.6712C8.8275 17.0152 9 17.4416 9 17.9501V25.1302H7.2V30.5152H21.6V21.5402H18.45C16.32 21.5402 14.5125 20.7997 13.0275 19.3188C11.5425 17.8379 10.8 16.0355 10.8 13.9114C10.8 12.3258 11.2275 10.9122 12.0825 9.67064C12.9375 8.42909 14.04 7.50914 15.39 6.9108C15.72 4.96621 16.6275 3.32825 18.1125 1.99695C19.5975 0.665651 21.36 0 23.4 0C25.44 0 27.2025 0.665651 28.6875 1.99695C30.1725 3.32825 31.08 4.96621 31.41 6.9108C32.76 7.50914 33.8625 8.42909 34.7175 9.67064C35.5725 10.9122 36 12.3258 36 13.9114C36 16.0355 35.2575 17.8379 33.7725 19.3188C32.2875 20.7997 30.48 21.5402 28.35 21.5402H25.2V30.5152H34.2V34.1053H1.8ZM18.45 17.9501H28.35C29.49 17.9501 30.45 17.5612 31.23 16.7834C32.01 16.0055 32.4 15.0482 32.4 13.9114C32.4 13.1036 32.1825 12.3706 31.7475 11.7125C31.3125 11.0543 30.72 10.5607 29.97 10.2316L28.08 9.42382L27.81 7.44931C27.63 6.34238 27.1275 5.42244 26.3025 4.68947C25.4775 3.95651 24.51 3.59003 23.4 3.59003C22.29 3.59003 21.3225 3.95651 20.4975 4.68947C19.6725 5.42244 19.17 6.34238 18.99 7.44931L18.72 9.42382L16.83 10.2316C16.08 10.5607 15.4875 11.0543 15.0525 11.7125C14.6175 12.3706 14.4 13.1036 14.4 13.9114C14.4 15.0482 14.79 16.0055 15.57 16.7834C16.35 17.5612 17.31 17.9501 18.45 17.9501Z" fill="#1F2421"/>
</svg>
